# Blender 4.0.1
# www.blender.org
mtllib stairBox.mtl
o Cube.001
v 1.000000 -1.000000 -1.000000
v 1.000000 1.000000 -1.000000
v 1.000000 0.000000 2.000000
v 1.000000 1.000000 1.000000
v -1.000000 -1.000000 -1.000000
v -1.000000 1.000000 -1.000000
v -1.000000 0.000000 2.000000
v -1.000000 1.000000 1.000000
v 1.000000 -2.000000 0.100000
v 1.000000 -2.000000 0.000000
v 1.000000 -1.000000 -0.900000
v 1.000000 -1.900000 0.000000
v 1.000000 -1.900000 -0.100000
v 1.000000 -1.800000 -0.100000
v 1.000000 -1.800000 -0.200000
v 1.000000 -1.700000 -0.200000
v 1.000000 -1.700000 -0.300000
v 1.000000 -1.600000 -0.300000
v 1.000000 -1.600000 -0.400000
v 1.000000 -1.500000 -0.400000
v 1.000000 -1.500000 -0.500000
v 1.000000 -1.400000 -0.500000
v 1.000000 -1.400000 -0.600000
v 1.000000 -1.300000 -0.600000
v 1.000000 -1.200000 -0.800000
v 1.000000 -1.100000 -0.800000
v -1.000000 -2.799999 0.900000
v -1.000000 -1.200000 -0.700000
v -1.000000 -1.300000 -0.700000
v 1.000000 -1.100000 -0.900000
v -1.000000 -1.100000 -0.900000
v -1.000000 -1.100000 -0.800000
v -1.000000 -1.200000 -0.800000
v -1.000000 -1.300000 -0.600000
v -1.000000 -1.400000 -0.600000
v -1.000000 -1.400000 -0.500000
v -1.000000 -1.500000 -0.500000
v -1.000000 -1.500000 -0.400000
v -1.000000 -1.600000 -0.400000
v -1.000000 -1.600000 -0.300000
v -1.000000 -1.700000 -0.300000
v -1.000000 -1.700000 -0.200000
v -1.000000 -1.800000 -0.200000
v 1.000000 -1.300000 -0.700000
v 1.000000 -1.200000 -0.700000
v -1.000000 -1.800000 -0.100000
v -1.000000 -1.900000 -0.100000
v -1.000000 -1.900000 0.000000
v -1.000000 -1.000000 -0.900000
v -1.000000 -2.000000 0.000000
v -1.000000 -2.000000 0.100000
v 1.000000 -2.799999 0.900000
v 1.000000 -2.799999 0.800000
v 1.000000 -2.700000 0.800000
v 1.000000 -2.700000 0.700000
v 1.000000 -2.600000 0.700000
v 1.000000 -2.600000 0.600000
v 1.000000 -2.500000 0.600000
v 1.000000 -2.500000 0.500000
v 1.000000 -2.400000 0.500000
v 1.000000 -2.400000 0.400000
v 1.000000 -2.300000 0.400000
v 1.000000 -2.300000 0.300000
v 1.000000 -2.200000 0.300000
v 1.000000 -2.200000 0.200000
v 1.000000 -2.100000 0.200000
v 1.000000 -2.100000 0.100000
v -1.000000 -2.799999 0.800000
v -1.000000 -2.700000 0.800000
v -1.000000 -2.700000 0.700000
v -1.000000 -2.600000 0.700000
v -1.000000 -2.600000 0.600000
v -1.000000 -2.500000 0.600000
v -1.000000 -2.500000 0.500000
v -1.000000 -2.400000 0.500000
v -1.000000 -2.400000 0.400000
v -1.000000 -2.300000 0.400000
v -1.000000 -2.300000 0.300000
v -1.000000 -2.200000 0.300000
v -1.000000 -2.200000 0.200000
v -1.000000 -2.100000 0.200000
v -1.000000 -2.100000 0.100000
v -1.000000 -2.899999 0.900000
v -1.000000 -2.899999 1.000000
v 1.000000 -2.899999 0.900000
v 1.000000 -2.899999 1.000000
v 1.000000 -3.799999 5.800000
v 1.000000 -1.899999 3.900000
v -1.000000 -3.799999 5.800000
v -1.000000 -1.899999 3.900000
v 1.000000 -3.900000 2.000000
v 1.000000 -3.900000 1.900000
v 1.000000 -2.899999 1.000000
v 1.000000 -3.800000 1.900000
v 1.000000 -3.800000 1.800000
v 1.000000 -3.700000 1.800000
v 1.000000 -3.700000 1.700000
v 1.000000 -3.600000 1.700000
v 1.000000 -3.600000 1.600000
v 1.000000 -3.500000 1.600000
v 1.000000 -3.500000 1.500000
v 1.000000 -3.400000 1.500000
v 1.000000 -3.400000 1.400000
v 1.000000 -3.299999 1.400000
v 1.000000 -3.299999 1.300000
v 1.000000 -3.200000 1.300000
v 1.000000 -3.100000 1.100000
v 1.000000 -3.000000 1.100000
v -1.000000 -4.699999 2.800000
v -1.000000 -3.100000 1.200000
v -1.000000 -3.200000 1.200000
v 1.000000 -3.000000 1.000000
v -1.000000 -3.000000 1.000000
v -1.000000 -3.000000 1.100000
v -1.000000 -3.100000 1.100000
v -1.000000 -3.200000 1.300000
v -1.000000 -3.299999 1.300000
v -1.000000 -3.299999 1.400000
v -1.000000 -3.400000 1.400000
v -1.000000 -3.400000 1.500000
v -1.000000 -3.500000 1.500000
v -1.000000 -3.500000 1.600000
v -1.000000 -3.600000 1.600000
v -1.000000 -3.600000 1.700000
v -1.000000 -3.700000 1.700000
v 1.000000 -3.200000 1.200000
v 1.000000 -3.100000 1.200000
v -1.000000 -3.700000 1.800000
v -1.000000 -3.800000 1.800000
v -1.000000 -3.800000 1.900000
v -1.000000 -2.899999 1.000000
v -1.000000 -3.900000 1.900000
v -1.000000 -3.900000 2.000000
v 1.000000 -4.699999 2.800000
v 1.000000 -4.699999 2.700000
v 1.000000 -4.599999 2.700000
v 1.000000 -4.599999 2.600000
v 1.000000 -4.499999 2.600000
v 1.000000 -4.499999 2.500000
v 1.000000 -4.400000 2.500000
v 1.000000 -4.400000 2.400000
v 1.000000 -4.299999 2.400000
v 1.000000 -4.299999 2.300000
v 1.000000 -4.200000 2.300000
v 1.000000 -4.200000 2.200000
v 1.000000 -4.099999 2.200000
v 1.000000 -4.099999 2.100000
v 1.000000 -4.000000 2.100000
v 1.000000 -4.000000 2.000000
v -1.000000 -4.699999 2.700000
v -1.000000 -4.599999 2.700000
v -1.000000 -4.599999 2.600000
v -1.000000 -4.499999 2.600000
v -1.000000 -4.499999 2.500000
v -1.000000 -4.400000 2.500000
v -1.000000 -4.400000 2.400000
v -1.000000 -4.299999 2.400000
v -1.000000 -4.299999 2.300000
v -1.000000 -4.200000 2.300000
v -1.000000 -4.200000 2.200000
v -1.000000 -4.099999 2.200000
v -1.000000 -4.099999 2.100000
v -1.000000 -4.000000 2.100000
v -1.000000 -4.000000 2.000000
v -1.000000 -4.799999 2.800000
v -1.000000 -4.799999 2.900000
v 1.000000 -4.799999 2.800000
v 1.000000 -4.799999 2.900000
v 1.000000 -5.800000 3.900000
v 1.000000 -5.800000 3.800000
v 1.000000 -4.799999 2.900000
v 1.000000 -5.700000 3.800000
v 1.000000 -5.700000 3.700001
v 1.000000 -5.599999 3.700001
v 1.000000 -5.599999 3.600000
v 1.000000 -5.500000 3.600000
v 1.000000 -5.500000 3.500000
v 1.000000 -5.400000 3.500000
v 1.000000 -5.400000 3.400000
v 1.000000 -5.299999 3.400000
v 1.000000 -5.299999 3.300000
v 1.000000 -5.199999 3.300000
v 1.000000 -5.199999 3.200001
v 1.000000 -5.099999 3.200001
v 1.000000 -5.000000 3.000000
v 1.000000 -4.900000 3.000000
v -1.000000 -6.599998 4.700001
v -1.000000 -5.000000 3.100000
v -1.000000 -5.099999 3.100000
v 1.000000 -4.900000 2.900000
v -1.000000 -4.900000 2.900000
v -1.000000 -4.900000 3.000000
v -1.000000 -5.000000 3.000000
v -1.000000 -5.099999 3.200001
v -1.000000 -5.199999 3.200001
v -1.000000 -5.199999 3.300000
v -1.000000 -5.299999 3.300000
v -1.000000 -5.299999 3.400000
v -1.000000 -5.400000 3.400000
v -1.000000 -5.400000 3.500000
v -1.000000 -5.500000 3.500000
v -1.000000 -5.500000 3.600000
v -1.000000 -5.599999 3.600000
v 1.000000 -5.099999 3.100000
v 1.000000 -5.000000 3.100000
v -1.000000 -5.599999 3.700001
v -1.000000 -5.700000 3.700001
v -1.000000 -5.700000 3.800000
v -1.000000 -4.799999 2.900000
v -1.000000 -5.800000 3.800000
v -1.000000 -5.800000 3.900000
v 1.000000 -6.599998 4.700001
v 1.000000 -6.599998 4.600000
v 1.000000 -6.499999 4.600000
v 1.000000 -6.499999 4.500000
v 1.000000 -6.399999 4.500000
v 1.000000 -6.399999 4.400001
v 1.000000 -6.299999 4.400001
v 1.000000 -6.299999 4.300000
v 1.000000 -6.199999 4.300000
v 1.000000 -6.199999 4.200001
v 1.000000 -6.099999 4.200001
v 1.000000 -6.099999 4.100000
v 1.000000 -5.999999 4.100000
v 1.000000 -5.999999 4.000000
v 1.000000 -5.900000 4.000000
v 1.000000 -5.900000 3.900000
v -1.000000 -6.599998 4.600000
v -1.000000 -6.499999 4.600000
v -1.000000 -6.499999 4.500000
v -1.000000 -6.399999 4.500000
v -1.000000 -6.399999 4.400001
v -1.000000 -6.299999 4.400001
v -1.000000 -6.299999 4.300000
v -1.000000 -6.199999 4.300000
v -1.000000 -6.199999 4.200001
v -1.000000 -6.099999 4.200001
v -1.000000 -6.099999 4.100000
v -1.000000 -5.999999 4.100000
v -1.000000 -5.999999 4.000000
v -1.000000 -5.900000 4.000000
v -1.000000 -5.900000 3.900000
v -1.000000 -6.699999 4.700001
v -1.000000 -6.699999 4.800000
v 1.000000 -6.699999 4.700001
v 1.000000 -6.699999 4.800000
vn -1.0000 -0.0000 -0.0000
vn -0.0000 -0.7071 -0.7071
vn 1.0000 -0.0000 -0.0000
vn -0.0000 1.0000 -0.0000
vn -0.0000 -0.0000 1.0000
vn -0.0000 0.3260 -0.9454
vt 0.375000 0.000000
vt 0.375000 0.250000
vt 0.625000 0.250000
vt 0.625000 0.000000
vt 0.375000 0.500000
vt 0.625000 0.500000
vt 0.375000 0.750000
vt 0.625000 0.750000
vt 0.000000 0.000000
s 0
f 1/1/1 3/2/1 4/3/1 2/4/1
f 3/2/2 7/5/2 8/6/2 4/3/2
f 7/5/3 5/7/3 6/8/3 8/6/3
f 19/9/4 39/9/4 40/9/4 18/9/4
f 59/9/4 74/9/4 73/9/4 58/9/4
f 66/9/5 81/9/5 80/9/5 65/9/5
f 20/9/5 38/9/5 39/9/5 19/9/5
f 61/9/4 76/9/4 75/9/4 60/9/4
f 64/9/5 79/9/5 78/9/5 63/9/5
f 21/9/4 37/9/4 38/9/4 20/9/4
f 62/9/5 77/9/5 76/9/5 61/9/5
f 63/9/4 78/9/4 77/9/4 62/9/4
f 57/9/4 72/9/4 71/9/4 56/9/4
f 26/9/5 32/9/5 33/9/5 25/9/5
f 58/9/5 73/9/5 72/9/5 57/9/5
f 30/9/4 31/9/4 32/9/4 26/9/4
f 60/9/5 75/9/5 74/9/5 59/9/5
f 14/9/5 46/9/5 47/9/5 13/9/5
f 11/9/5 49/9/5 31/9/5 30/9/5
f 44/9/4 29/9/4 34/9/4 24/9/4
f 15/9/4 43/9/4 46/9/4 14/9/4
f 45/9/5 28/9/5 29/9/5 44/9/5
f 56/9/5 71/9/5 70/9/5 55/9/5
f 25/9/4 33/9/4 28/9/4 45/9/4
f 22/9/5 36/9/5 37/9/5 21/9/5
f 10/9/4 50/9/4 51/9/4 9/9/4
f 67/9/4 82/9/4 81/9/4 66/9/4
f 53/9/4 68/9/4 27/9/4 52/9/4
f 65/9/4 80/9/4 79/9/4 64/9/4
f 24/9/5 34/9/5 35/9/5 23/9/5
f 89/9/2 90/9/2 88/9/2 87/9/2
f 17/9/4 41/9/4 42/9/4 16/9/4
f 18/9/5 40/9/5 41/9/5 17/9/5
f 13/9/4 47/9/4 48/9/4 12/9/4
f 54/9/5 69/9/5 68/9/5 53/9/5
f 55/9/4 70/9/4 69/9/4 54/9/4
f 12/9/5 48/9/5 50/9/5 10/9/5
f 9/9/5 51/9/5 82/9/5 67/9/5
f 23/9/4 35/9/4 36/9/4 22/9/4
f 16/9/5 42/9/5 43/9/5 15/9/5
f 1/9/4 5/9/4 49/9/4 11/9/4
f 31/9/3 49/9/3 32/9/3
f 33/9/3 32/9/3 28/9/3
f 29/9/3 28/9/3 34/9/3
f 35/9/3 34/9/3 36/9/3
f 37/9/3 36/9/3 38/9/3
f 39/9/3 38/9/3 40/9/3
f 41/9/3 40/9/3 42/9/3
f 43/9/3 42/9/3 46/9/3
f 47/9/3 46/9/3 48/9/3
f 50/9/3 48/9/3 51/9/3
f 82/9/3 51/9/3 81/9/3
f 80/9/3 81/9/3 79/9/3
f 78/9/3 79/9/3 77/9/3
f 76/9/3 77/9/3 75/9/3
f 74/9/3 75/9/3 73/9/3
f 72/9/3 73/9/3 71/9/3
f 70/9/3 71/9/3 69/9/3
f 68/9/3 69/9/3 27/9/3
f 53/9/1 52/9/1 54/9/1
f 55/9/1 54/9/1 56/9/1
f 57/9/1 56/9/1 58/9/1
f 59/9/1 58/9/1 60/9/1
f 61/9/1 60/9/1 62/9/1
f 63/9/1 62/9/1 64/9/1
f 65/9/1 64/9/1 66/9/1
f 67/9/1 66/9/1 9/9/1
f 10/9/1 9/9/1 12/9/1
f 13/9/1 12/9/1 14/9/1
f 15/9/1 14/9/1 16/9/1
f 17/9/1 16/9/1 18/9/1
f 19/9/1 18/9/1 20/9/1
f 21/9/1 20/9/1 22/9/1
f 23/9/1 22/9/1 24/9/1
f 44/9/1 24/9/1 45/9/1
f 25/9/1 45/9/1 26/9/1
f 30/9/1 26/9/1 11/9/1
f 84/9/4 86/9/4 85/9/4 83/9/4
f 52/9/5 27/9/5 83/9/5 85/9/5
f 83/9/3 27/9/3 84/9/3
f 85/9/1 86/9/1 52/9/1
f 32/9/3 49/9/3 7/9/3 84/9/3 27/9/3 69/9/3 71/9/3 73/9/3 75/9/3 77/9/3 79/9/3 81/9/3 51/9/3 48/9/3 46/9/3 42/9/3 40/9/3 38/9/3 36/9/3 34/9/3 28/9/3
f 52/9/1 86/9/1 3/9/1 11/9/1 26/9/1 45/9/1 24/9/1 22/9/1 20/9/1 18/9/1 16/9/1 14/9/1 12/9/1 9/9/1 66/9/1 64/9/1 62/9/1 60/9/1 58/9/1 56/9/1 54/9/1
f 101/9/4 121/9/4 122/9/4 100/9/4
f 141/9/4 156/9/4 155/9/4 140/9/4
f 148/9/5 163/9/5 162/9/5 147/9/5
f 102/9/5 120/9/5 121/9/5 101/9/5
f 143/9/4 158/9/4 157/9/4 142/9/4
f 146/9/5 161/9/5 160/9/5 145/9/5
f 103/9/4 119/9/4 120/9/4 102/9/4
f 144/9/5 159/9/5 158/9/5 143/9/5
f 145/9/4 160/9/4 159/9/4 144/9/4
f 139/9/4 154/9/4 153/9/4 138/9/4
f 108/9/5 114/9/5 115/9/5 107/9/5
f 140/9/5 155/9/5 154/9/5 139/9/5
f 112/9/4 113/9/4 114/9/4 108/9/4
f 142/9/5 157/9/5 156/9/5 141/9/5
f 96/9/5 128/9/5 129/9/5 95/9/5
f 93/9/5 131/9/5 113/9/5 112/9/5
f 126/9/4 111/9/4 116/9/4 106/9/4
f 97/9/4 125/9/4 128/9/4 96/9/4
f 127/9/5 110/9/5 111/9/5 126/9/5
f 138/9/5 153/9/5 152/9/5 137/9/5
f 107/9/4 115/9/4 110/9/4 127/9/4
f 104/9/5 118/9/5 119/9/5 103/9/5
f 92/9/4 132/9/4 133/9/4 91/9/4
f 149/9/4 164/9/4 163/9/4 148/9/4
f 135/9/4 150/9/4 109/9/4 134/9/4
f 147/9/4 162/9/4 161/9/4 146/9/4
f 106/9/5 116/9/5 117/9/5 105/9/5
f 99/9/4 123/9/4 124/9/4 98/9/4
f 100/9/5 122/9/5 123/9/5 99/9/5
f 95/9/4 129/9/4 130/9/4 94/9/4
f 136/9/5 151/9/5 150/9/5 135/9/5
f 137/9/4 152/9/4 151/9/4 136/9/4
f 94/9/5 130/9/5 132/9/5 92/9/5
f 91/9/5 133/9/5 164/9/5 149/9/5
f 105/9/4 117/9/4 118/9/4 104/9/4
f 98/9/5 124/9/5 125/9/5 97/9/5
f 179/9/4 199/9/4 200/9/4 178/9/4
f 113/9/3 131/9/3 114/9/3
f 115/9/3 114/9/3 110/9/3
f 111/9/3 110/9/3 116/9/3
f 117/9/3 116/9/3 118/9/3
f 119/9/3 118/9/3 120/9/3
f 121/9/3 120/9/3 122/9/3
f 123/9/3 122/9/3 124/9/3
f 125/9/3 124/9/3 128/9/3
f 129/9/3 128/9/3 130/9/3
f 132/9/3 130/9/3 133/9/3
f 164/9/3 133/9/3 163/9/3
f 162/9/3 163/9/3 161/9/3
f 160/9/3 161/9/3 159/9/3
f 158/9/3 159/9/3 157/9/3
f 156/9/3 157/9/3 155/9/3
f 154/9/3 155/9/3 153/9/3
f 152/9/3 153/9/3 151/9/3
f 150/9/3 151/9/3 109/9/3
f 135/9/1 134/9/1 136/9/1
f 137/9/1 136/9/1 138/9/1
f 139/9/1 138/9/1 140/9/1
f 141/9/1 140/9/1 142/9/1
f 143/9/1 142/9/1 144/9/1
f 145/9/1 144/9/1 146/9/1
f 147/9/1 146/9/1 148/9/1
f 149/9/1 148/9/1 91/9/1
f 92/9/1 91/9/1 94/9/1
f 95/9/1 94/9/1 96/9/1
f 97/9/1 96/9/1 98/9/1
f 99/9/1 98/9/1 100/9/1
f 101/9/1 100/9/1 102/9/1
f 103/9/1 102/9/1 104/9/1
f 105/9/1 104/9/1 106/9/1
f 126/9/1 106/9/1 127/9/1
f 107/9/1 127/9/1 108/9/1
f 112/9/1 108/9/1 93/9/1
f 166/9/4 168/9/4 167/9/4 165/9/4
f 134/9/5 109/9/5 165/9/5 167/9/5
f 165/9/3 109/9/3 166/9/3
f 167/9/1 168/9/1 134/9/1
f 114/9/3 131/9/3 90/9/3 166/9/3 109/9/3 151/9/3 153/9/3 155/9/3 157/9/3 159/9/3 161/9/3 163/9/3 133/9/3 130/9/3 128/9/3 124/9/3 122/9/3 120/9/3 118/9/3 116/9/3 110/9/3
f 134/9/1 168/9/1 88/9/1 93/9/1 108/9/1 127/9/1 106/9/1 104/9/1 102/9/1 100/9/1 98/9/1 96/9/1 94/9/1 91/9/1 148/9/1 146/9/1 144/9/1 142/9/1 140/9/1 138/9/1 136/9/1
f 219/9/4 234/9/4 233/9/4 218/9/4
f 226/9/5 241/9/5 240/9/5 225/9/5
f 180/9/5 198/9/5 199/9/5 179/9/5
f 221/9/4 236/9/4 235/9/4 220/9/4
f 224/9/5 239/9/5 238/9/5 223/9/5
f 181/9/4 197/9/4 198/9/4 180/9/4
f 222/9/5 237/9/5 236/9/5 221/9/5
f 223/9/4 238/9/4 237/9/4 222/9/4
f 217/9/4 232/9/4 231/9/4 216/9/4
f 186/9/5 192/9/5 193/9/5 185/9/5
f 218/9/5 233/9/5 232/9/5 217/9/5
f 190/9/4 191/9/4 192/9/4 186/9/4
f 220/9/5 235/9/5 234/9/5 219/9/5
f 174/9/5 206/9/5 207/9/5 173/9/5
f 171/9/5 209/9/5 191/9/5 190/9/5
f 204/9/4 189/9/4 194/9/4 184/9/4
f 175/9/4 203/9/4 206/9/4 174/9/4
f 205/9/5 188/9/5 189/9/5 204/9/5
f 216/9/5 231/9/5 230/9/5 215/9/5
f 185/9/4 193/9/4 188/9/4 205/9/4
f 182/9/5 196/9/5 197/9/5 181/9/5
f 170/9/4 210/9/4 211/9/4 169/9/4
f 227/9/4 242/9/4 241/9/4 226/9/4
f 213/9/4 228/9/4 187/9/4 212/9/4
f 225/9/4 240/9/4 239/9/4 224/9/4
f 184/9/5 194/9/5 195/9/5 183/9/5
f 177/9/4 201/9/4 202/9/4 176/9/4
f 178/9/5 200/9/5 201/9/5 177/9/5
f 173/9/4 207/9/4 208/9/4 172/9/4
f 214/9/5 229/9/5 228/9/5 213/9/5
f 215/9/4 230/9/4 229/9/4 214/9/4
f 172/9/5 208/9/5 210/9/5 170/9/5
f 169/9/5 211/9/5 242/9/5 227/9/5
f 183/9/4 195/9/4 196/9/4 182/9/4
f 176/9/5 202/9/5 203/9/5 175/9/5
f 191/9/3 209/9/3 192/9/3
f 193/9/3 192/9/3 188/9/3
f 189/9/3 188/9/3 194/9/3
f 195/9/3 194/9/3 196/9/3
f 197/9/3 196/9/3 198/9/3
f 199/9/3 198/9/3 200/9/3
f 201/9/3 200/9/3 202/9/3
f 203/9/3 202/9/3 206/9/3
f 207/9/3 206/9/3 208/9/3
f 210/9/3 208/9/3 211/9/3
f 242/9/3 211/9/3 241/9/3
f 240/9/3 241/9/3 239/9/3
f 238/9/3 239/9/3 237/9/3
f 236/9/3 237/9/3 235/9/3
f 234/9/3 235/9/3 233/9/3
f 232/9/3 233/9/3 231/9/3
f 230/9/3 231/9/3 229/9/3
f 228/9/3 229/9/3 187/9/3
f 213/9/1 212/9/1 214/9/1
f 215/9/1 214/9/1 216/9/1
f 217/9/1 216/9/1 218/9/1
f 219/9/1 218/9/1 220/9/1
f 221/9/1 220/9/1 222/9/1
f 223/9/1 222/9/1 224/9/1
f 225/9/1 224/9/1 226/9/1
f 227/9/1 226/9/1 169/9/1
f 170/9/1 169/9/1 172/9/1
f 173/9/1 172/9/1 174/9/1
f 175/9/1 174/9/1 176/9/1
f 177/9/1 176/9/1 178/9/1
f 179/9/1 178/9/1 180/9/1
f 181/9/1 180/9/1 182/9/1
f 183/9/1 182/9/1 184/9/1
f 204/9/1 184/9/1 205/9/1
f 185/9/1 205/9/1 186/9/1
f 190/9/1 186/9/1 171/9/1
f 244/9/4 246/9/4 245/9/4 243/9/4
f 212/9/5 187/9/5 243/9/5 245/9/5
f 243/9/3 187/9/3 244/9/3
f 245/9/1 246/9/1 212/9/1
f 192/9/3 209/9/3 89/9/3 244/9/3 187/9/3 229/9/3 231/9/3 233/9/3 235/9/3 237/9/3 239/9/3 241/9/3 211/9/3 208/9/3 206/9/3 202/9/3 200/9/3 198/9/3 196/9/3 194/9/3 188/9/3
f 212/9/1 246/9/1 87/9/1 171/9/1 186/9/1 205/9/1 184/9/1 182/9/1 180/9/1 178/9/1 176/9/1 174/9/1 172/9/1 169/9/1 226/9/1 224/9/1 222/9/1 220/9/1 218/9/1 216/9/1 214/9/1
f 209/9/3 90/9/3 89/9/3
f 88/9/1 168/9/1 87/9/1
f 3/9/1 93/9/1 88/9/1
f 90/9/3 131/9/3 7/9/3
f 3/9/2 88/9/2 90/9/2 7/9/2
f 89/9/6 87/9/6 246/9/6 244/9/6
f 7/9/3 49/9/3 5/9/3
f 1/9/1 11/9/1 3/9/1
l 6 2
