# Blender 4.0.1
# www.blender.org
mtllib stairBoxUp.mtl
o Cube
v 1.000000 0.000000 0.100000
v 1.000000 0.000000 0.000000
v 1.000000 -1.000000 -0.900000
v 1.000000 -0.100000 0.000000
v 1.000000 -0.100000 -0.100000
v 1.000000 -0.200000 -0.100000
v 1.000000 -0.200000 -0.200000
v 1.000000 -0.300000 -0.200000
v 1.000000 -0.300000 -0.300000
v 1.000000 -0.400000 -0.300000
v 1.000000 -0.400000 -0.400000
v 1.000000 -0.500000 -0.400000
v 1.000000 -0.500000 -0.500000
v 1.000000 -0.600000 -0.500000
v 1.000000 -0.600000 -0.600000
v 1.000000 -0.700000 -0.600000
v 1.000000 -0.800000 -0.800000
v 1.000000 -0.900000 -0.800000
v -1.000000 0.799999 0.900000
v -1.000000 -0.800000 -0.700000
v -1.000000 -0.700000 -0.700000
v 1.000000 -0.900000 -0.900000
v -1.000000 -0.900000 -0.900000
v -1.000000 -0.900000 -0.800000
v -1.000000 -0.800000 -0.800000
v -1.000000 -0.700000 -0.600000
v -1.000000 -0.600000 -0.600000
v -1.000000 -0.600000 -0.500000
v -1.000000 -0.500000 -0.500000
v -1.000000 -0.500000 -0.400000
v -1.000000 -0.400000 -0.400000
v -1.000000 -0.400000 -0.300000
v -1.000000 -0.300000 -0.300000
v -1.000000 -0.300000 -0.200000
v -1.000000 -0.200000 -0.200000
v 1.000000 -0.700000 -0.700000
v 1.000000 -0.800000 -0.700000
v -1.000000 -0.200000 -0.100000
v -1.000000 -0.100000 -0.100000
v -1.000000 -0.100000 0.000000
v -1.000000 -1.000000 -0.900000
v -1.000000 0.000000 0.000000
v -1.000000 0.000000 0.100000
v 1.000000 0.799999 0.900000
v 1.000000 0.799999 0.800000
v 1.000000 0.700000 0.800000
v 1.000000 0.700000 0.700000
v 1.000000 0.599999 0.700000
v 1.000000 0.599999 0.600000
v 1.000000 0.500000 0.600000
v 1.000000 0.500000 0.500000
v 1.000000 0.400000 0.500000
v 1.000000 0.400000 0.400000
v 1.000000 0.300000 0.400000
v 1.000000 0.300000 0.300000
v 1.000000 0.200000 0.300000
v 1.000000 0.200000 0.200000
v 1.000000 0.100000 0.200000
v 1.000000 0.100000 0.100000
v -1.000000 0.799999 0.800000
v -1.000000 0.700000 0.800000
v -1.000000 0.700000 0.700000
v -1.000000 0.599999 0.700000
v -1.000000 0.599999 0.600000
v -1.000000 0.500000 0.600000
v -1.000000 0.500000 0.500000
v -1.000000 0.400000 0.500000
v -1.000000 0.400000 0.400000
v -1.000000 0.300000 0.400000
v -1.000000 0.300000 0.300000
v -1.000000 0.200000 0.300000
v -1.000000 0.200000 0.200000
v -1.000000 0.100000 0.200000
v -1.000000 0.100000 0.100000
v -1.000000 0.900000 0.900000
v -1.000000 0.900000 1.000000
v 1.000000 0.900000 0.900000
v 1.000000 0.900000 1.000000
v 1.000000 1.900000 2.000000
v 1.000000 1.900000 1.900000
v 1.000000 0.900000 1.000000
v 1.000000 1.800000 1.900000
v 1.000000 1.800000 1.800000
v 1.000000 1.700000 1.800000
v 1.000000 1.700000 1.700000
v 1.000000 1.599999 1.700000
v 1.000000 1.599999 1.600001
v 1.000000 1.500000 1.600001
v 1.000000 1.500000 1.500000
v 1.000000 1.399999 1.500000
v 1.000000 1.399999 1.400000
v 1.000000 1.299999 1.400000
v 1.000000 1.299999 1.300000
v 1.000000 1.200000 1.300000
v 1.000000 1.099999 1.100001
v 1.000000 1.000000 1.100001
v -1.000000 2.699999 2.800000
v -1.000000 1.099999 1.200000
v -1.000000 1.200000 1.200000
v 1.000000 1.000000 1.000000
v -1.000000 1.000000 1.000000
v -1.000000 1.000000 1.100001
v -1.000000 1.099999 1.100001
v -1.000000 1.200000 1.300000
v -1.000000 1.299999 1.300000
v -1.000000 1.299999 1.400000
v -1.000000 1.399999 1.400000
v -1.000000 1.399999 1.500000
v -1.000000 1.500000 1.500000
v -1.000000 1.500000 1.600001
v -1.000000 1.599999 1.600001
v -1.000000 1.599999 1.700000
v -1.000000 1.700000 1.700000
v 1.000000 1.200000 1.200000
v 1.000000 1.099999 1.200000
v -1.000000 1.700000 1.800000
v -1.000000 1.800000 1.800000
v -1.000000 1.800000 1.900000
v -1.000000 0.900000 1.000000
v -1.000000 1.900000 1.900000
v -1.000000 1.900000 2.000000
v 1.000000 2.699999 2.800000
v 1.000000 2.699999 2.700000
v 1.000000 2.599999 2.700000
v 1.000000 2.599999 2.600000
v 1.000000 2.499999 2.600000
v 1.000000 2.499999 2.500000
v 1.000000 2.400000 2.500000
v 1.000000 2.400000 2.400000
v 1.000000 2.299999 2.400000
v 1.000000 2.299999 2.300000
v 1.000000 2.200000 2.300000
v 1.000000 2.200000 2.200000
v 1.000000 2.099999 2.200000
v 1.000000 2.099999 2.100000
v 1.000000 2.000000 2.100000
v 1.000000 2.000000 2.000000
v -1.000000 2.699999 2.700000
v -1.000000 2.599999 2.700000
v -1.000000 2.599999 2.600000
v -1.000000 2.499999 2.600000
v -1.000000 2.499999 2.500000
v -1.000000 2.400000 2.500000
v -1.000000 2.400000 2.400000
v -1.000000 2.299999 2.400000
v -1.000000 2.299999 2.300000
v -1.000000 2.200000 2.300000
v -1.000000 2.200000 2.200000
v -1.000000 2.099999 2.200000
v -1.000000 2.099999 2.100000
v -1.000000 2.000000 2.100000
v -1.000000 2.000000 2.000000
v -1.000000 2.799999 2.800000
v -1.000000 2.799999 2.900001
v 1.000000 2.799999 2.800000
v 1.000000 2.799999 2.900001
v 1.000000 3.800000 3.900001
v 1.000000 3.800000 3.800000
v 1.000000 2.799999 2.900001
v 1.000000 3.700000 3.800000
v 1.000000 3.700000 3.700001
v 1.000000 3.599999 3.700001
v 1.000000 3.599999 3.600000
v 1.000000 3.500000 3.600000
v 1.000000 3.500000 3.500000
v 1.000000 3.400000 3.500000
v 1.000000 3.400000 3.400001
v 1.000000 3.299999 3.400001
v 1.000000 3.299999 3.300000
v 1.000000 3.199999 3.300000
v 1.000000 3.199999 3.200001
v 1.000000 3.099999 3.200001
v 1.000000 3.000000 3.000000
v 1.000000 2.900000 3.000000
v -1.000000 4.599998 4.700001
v -1.000000 3.000000 3.100000
v -1.000000 3.099999 3.100000
v 1.000000 2.900000 2.900001
v -1.000000 2.900000 2.900001
v -1.000000 2.900000 3.000000
v -1.000000 3.000000 3.000000
v -1.000000 3.099999 3.200001
v -1.000000 3.199999 3.200001
v -1.000000 3.199999 3.300000
v -1.000000 3.299999 3.300000
v -1.000000 3.299999 3.400001
v -1.000000 3.400000 3.400001
v -1.000000 3.400000 3.500000
v -1.000000 3.500000 3.500000
v -1.000000 3.500000 3.600000
v -1.000000 3.599999 3.600000
v 1.000000 3.099999 3.100000
v 1.000000 3.000000 3.100000
v -1.000000 3.599999 3.700001
v -1.000000 3.700000 3.700001
v -1.000000 3.700000 3.800000
v -1.000000 2.799999 2.900001
v -1.000000 3.800000 3.800000
v -1.000000 3.800000 3.900001
v 1.000000 4.599998 4.700001
v 1.000000 4.599998 4.600000
v 1.000000 4.499999 4.600000
v 1.000000 4.499999 4.500000
v 1.000000 4.399999 4.500000
v 1.000000 4.399999 4.400001
v 1.000000 4.299999 4.400001
v 1.000000 4.299999 4.300000
v 1.000000 4.199999 4.300000
v 1.000000 4.199999 4.200001
v 1.000000 4.099999 4.200001
v 1.000000 4.099999 4.100000
v 1.000000 3.999999 4.100000
v 1.000000 3.999999 4.000000
v 1.000000 3.900000 4.000000
v 1.000000 3.900000 3.900001
v -1.000000 4.599998 4.600000
v -1.000000 4.499999 4.600000
v -1.000000 4.499999 4.500000
v -1.000000 4.399999 4.500000
v -1.000000 4.399999 4.400001
v -1.000000 4.299999 4.400001
v -1.000000 4.299999 4.300000
v -1.000000 4.199999 4.300000
v -1.000000 4.199999 4.200001
v -1.000000 4.099999 4.200001
v -1.000000 4.099999 4.100000
v -1.000000 3.999999 4.100000
v -1.000000 3.999999 4.000000
v -1.000000 3.900000 4.000000
v -1.000000 3.900000 3.900001
v -1.000000 4.699999 4.700001
v -1.000000 4.699999 4.800000
v 1.000000 4.699999 4.700001
v 1.000000 4.699999 4.800000
v -1.000000 -1.000000 -1.000000
v 1.000000 -1.000000 -1.000000
v -1.000000 4.699999 -1.000000
v 1.000000 4.699999 -1.000000
v 1.000000 -1.000000 -1.000000
v 1.000000 1.000000 -1.000000
v 1.000000 -1.000000 1.000000
v 1.000000 1.000000 1.000000
v -1.000000 -1.000000 -1.000000
v -1.000000 1.000000 -1.000000
v -1.000000 -1.000000 1.000000
v -1.000000 1.000000 1.000000
vn -0.0000 1.0000 -0.0000
vn -0.0000 -0.0000 -1.0000
vn -1.0000 -0.0000 -0.0000
vn 1.0000 -0.0000 -0.0000
vn -0.0000 -1.0000 -0.0000
vt 0.000000 0.000000
vt 0.375000 0.000000
vt 0.375000 0.250000
vt 0.625000 0.250000
vt 0.625000 0.000000
vt 0.375000 0.500000
vt 0.625000 0.500000
vt 0.375000 0.750000
vt 0.625000 0.750000
vt 0.125000 0.500000
vt 0.125000 0.750000
s 0
f 11/1/1 31/1/1 32/1/1 10/1/1
f 51/1/1 66/1/1 65/1/1 50/1/1
f 58/1/2 73/1/2 72/1/2 57/1/2
f 12/1/2 30/1/2 31/1/2 11/1/2
f 53/1/1 68/1/1 67/1/1 52/1/1
f 56/1/2 71/1/2 70/1/2 55/1/2
f 13/1/1 29/1/1 30/1/1 12/1/1
f 54/1/2 69/1/2 68/1/2 53/1/2
f 55/1/1 70/1/1 69/1/1 54/1/1
f 49/1/1 64/1/1 63/1/1 48/1/1
f 18/1/2 24/1/2 25/1/2 17/1/2
f 50/1/2 65/1/2 64/1/2 49/1/2
f 22/1/1 23/1/1 24/1/1 18/1/1
f 52/1/2 67/1/2 66/1/2 51/1/2
f 6/1/2 38/1/2 39/1/2 5/1/2
f 3/1/2 41/1/2 23/1/2 22/1/2
f 36/1/1 21/1/1 26/1/1 16/1/1
f 7/1/1 35/1/1 38/1/1 6/1/1
f 37/1/2 20/1/2 21/1/2 36/1/2
f 48/1/2 63/1/2 62/1/2 47/1/2
f 17/1/1 25/1/1 20/1/1 37/1/1
f 14/1/2 28/1/2 29/1/2 13/1/2
f 2/1/1 42/1/1 43/1/1 1/1/1
f 59/1/1 74/1/1 73/1/1 58/1/1
f 45/1/1 60/1/1 19/1/1 44/1/1
f 57/1/1 72/1/1 71/1/1 56/1/1
f 16/1/2 26/1/2 27/1/2 15/1/2
f 9/1/1 33/1/1 34/1/1 8/1/1
f 10/1/2 32/1/2 33/1/2 9/1/2
f 5/1/1 39/1/1 40/1/1 4/1/1
f 46/1/2 61/1/2 60/1/2 45/1/2
f 47/1/1 62/1/1 61/1/1 46/1/1
f 4/1/2 40/1/2 42/1/2 2/1/2
f 1/1/2 43/1/2 74/1/2 59/1/2
f 15/1/1 27/1/1 28/1/1 14/1/1
f 8/1/2 34/1/2 35/1/2 7/1/2
f 23/1/3 41/1/3 24/1/3
f 25/1/3 24/1/3 20/1/3
f 21/1/3 20/1/3 26/1/3
f 27/1/3 26/1/3 28/1/3
f 29/1/3 28/1/3 30/1/3
f 31/1/3 30/1/3 32/1/3
f 33/1/3 32/1/3 34/1/3
f 35/1/3 34/1/3 38/1/3
f 39/1/3 38/1/3 40/1/3
f 42/1/3 40/1/3 43/1/3
f 74/1/3 43/1/3 73/1/3
f 72/1/3 73/1/3 71/1/3
f 70/1/3 71/1/3 69/1/3
f 68/1/3 69/1/3 67/1/3
f 66/1/3 67/1/3 65/1/3
f 64/1/3 65/1/3 63/1/3
f 62/1/3 63/1/3 61/1/3
f 60/1/3 61/1/3 19/1/3
f 45/1/4 44/1/4 46/1/4
f 47/1/4 46/1/4 48/1/4
f 49/1/4 48/1/4 50/1/4
f 51/1/4 50/1/4 52/1/4
f 53/1/4 52/1/4 54/1/4
f 55/1/4 54/1/4 56/1/4
f 57/1/4 56/1/4 58/1/4
f 59/1/4 58/1/4 1/1/4
f 2/1/4 1/1/4 4/1/4
f 5/1/4 4/1/4 6/1/4
f 7/1/4 6/1/4 8/1/4
f 9/1/4 8/1/4 10/1/4
f 11/1/4 10/1/4 12/1/4
f 13/1/4 12/1/4 14/1/4
f 15/1/4 14/1/4 16/1/4
f 36/1/4 16/1/4 37/1/4
f 17/1/4 37/1/4 18/1/4
f 22/1/4 18/1/4 3/1/4
f 76/1/1 78/1/1 77/1/1 75/1/1
f 44/1/2 19/1/2 75/1/2 77/1/2
f 75/1/3 19/1/3 76/1/3
f 77/1/4 78/1/4 44/1/4
f 89/1/1 109/1/1 110/1/1 88/1/1
f 129/1/1 144/1/1 143/1/1 128/1/1
f 136/1/2 151/1/2 150/1/2 135/1/2
f 90/1/2 108/1/2 109/1/2 89/1/2
f 131/1/1 146/1/1 145/1/1 130/1/1
f 134/1/2 149/1/2 148/1/2 133/1/2
f 91/1/1 107/1/1 108/1/1 90/1/1
f 132/1/2 147/1/2 146/1/2 131/1/2
f 133/1/1 148/1/1 147/1/1 132/1/1
f 127/1/1 142/1/1 141/1/1 126/1/1
f 96/1/2 102/1/2 103/1/2 95/1/2
f 128/1/2 143/1/2 142/1/2 127/1/2
f 100/1/1 101/1/1 102/1/1 96/1/1
f 130/1/2 145/1/2 144/1/2 129/1/2
f 84/1/2 116/1/2 117/1/2 83/1/2
f 81/1/2 119/1/2 101/1/2 100/1/2
f 114/1/1 99/1/1 104/1/1 94/1/1
f 85/1/1 113/1/1 116/1/1 84/1/1
f 115/1/2 98/1/2 99/1/2 114/1/2
f 126/1/2 141/1/2 140/1/2 125/1/2
f 95/1/1 103/1/1 98/1/1 115/1/1
f 92/1/2 106/1/2 107/1/2 91/1/2
f 80/1/1 120/1/1 121/1/1 79/1/1
f 137/1/1 152/1/1 151/1/1 136/1/1
f 123/1/1 138/1/1 97/1/1 122/1/1
f 135/1/1 150/1/1 149/1/1 134/1/1
f 94/1/2 104/1/2 105/1/2 93/1/2
f 87/1/1 111/1/1 112/1/1 86/1/1
f 88/1/2 110/1/2 111/1/2 87/1/2
f 83/1/1 117/1/1 118/1/1 82/1/1
f 124/1/2 139/1/2 138/1/2 123/1/2
f 125/1/1 140/1/1 139/1/1 124/1/1
f 82/1/2 118/1/2 120/1/2 80/1/2
f 79/1/2 121/1/2 152/1/2 137/1/2
f 93/1/1 105/1/1 106/1/1 92/1/1
f 86/1/2 112/1/2 113/1/2 85/1/2
f 167/1/1 187/1/1 188/1/1 166/1/1
f 101/1/3 119/1/3 102/1/3
f 103/1/3 102/1/3 98/1/3
f 99/1/3 98/1/3 104/1/3
f 105/1/3 104/1/3 106/1/3
f 107/1/3 106/1/3 108/1/3
f 109/1/3 108/1/3 110/1/3
f 111/1/3 110/1/3 112/1/3
f 113/1/3 112/1/3 116/1/3
f 117/1/3 116/1/3 118/1/3
f 120/1/3 118/1/3 121/1/3
f 152/1/3 121/1/3 151/1/3
f 150/1/3 151/1/3 149/1/3
f 148/1/3 149/1/3 147/1/3
f 146/1/3 147/1/3 145/1/3
f 144/1/3 145/1/3 143/1/3
f 142/1/3 143/1/3 141/1/3
f 140/1/3 141/1/3 139/1/3
f 138/1/3 139/1/3 97/1/3
f 123/1/4 122/1/4 124/1/4
f 125/1/4 124/1/4 126/1/4
f 127/1/4 126/1/4 128/1/4
f 129/1/4 128/1/4 130/1/4
f 131/1/4 130/1/4 132/1/4
f 133/1/4 132/1/4 134/1/4
f 135/1/4 134/1/4 136/1/4
f 137/1/4 136/1/4 79/1/4
f 80/1/4 79/1/4 82/1/4
f 83/1/4 82/1/4 84/1/4
f 85/1/4 84/1/4 86/1/4
f 87/1/4 86/1/4 88/1/4
f 89/1/4 88/1/4 90/1/4
f 91/1/4 90/1/4 92/1/4
f 93/1/4 92/1/4 94/1/4
f 114/1/4 94/1/4 115/1/4
f 95/1/4 115/1/4 96/1/4
f 100/1/4 96/1/4 81/1/4
f 154/1/1 156/1/1 155/1/1 153/1/1
f 122/1/2 97/1/2 153/1/2 155/1/2
f 153/1/3 97/1/3 154/1/3
f 155/1/4 156/1/4 122/1/4
f 207/1/1 222/1/1 221/1/1 206/1/1
f 214/1/2 229/1/2 228/1/2 213/1/2
f 168/1/2 186/1/2 187/1/2 167/1/2
f 209/1/1 224/1/1 223/1/1 208/1/1
f 212/1/2 227/1/2 226/1/2 211/1/2
f 169/1/1 185/1/1 186/1/1 168/1/1
f 210/1/2 225/1/2 224/1/2 209/1/2
f 211/1/1 226/1/1 225/1/1 210/1/1
f 205/1/1 220/1/1 219/1/1 204/1/1
f 174/1/2 180/1/2 181/1/2 173/1/2
f 206/1/2 221/1/2 220/1/2 205/1/2
f 178/1/1 179/1/1 180/1/1 174/1/1
f 208/1/2 223/1/2 222/1/2 207/1/2
f 162/1/2 194/1/2 195/1/2 161/1/2
f 159/1/2 197/1/2 179/1/2 178/1/2
f 192/1/1 177/1/1 182/1/1 172/1/1
f 163/1/1 191/1/1 194/1/1 162/1/1
f 193/1/2 176/1/2 177/1/2 192/1/2
f 204/1/2 219/1/2 218/1/2 203/1/2
f 173/1/1 181/1/1 176/1/1 193/1/1
f 170/1/2 184/1/2 185/1/2 169/1/2
f 158/1/1 198/1/1 199/1/1 157/1/1
f 215/1/1 230/1/1 229/1/1 214/1/1
f 201/1/1 216/1/1 175/1/1 200/1/1
f 213/1/1 228/1/1 227/1/1 212/1/1
f 172/1/2 182/1/2 183/1/2 171/1/2
f 165/1/1 189/1/1 190/1/1 164/1/1
f 166/1/2 188/1/2 189/1/2 165/1/2
f 161/1/1 195/1/1 196/1/1 160/1/1
f 202/1/2 217/1/2 216/1/2 201/1/2
f 203/1/1 218/1/1 217/1/1 202/1/1
f 160/1/2 196/1/2 198/1/2 158/1/2
f 157/1/2 199/1/2 230/1/2 215/1/2
f 171/1/1 183/1/1 184/1/1 170/1/1
f 164/1/2 190/1/2 191/1/2 163/1/2
f 179/1/3 197/1/3 180/1/3
f 181/1/3 180/1/3 176/1/3
f 177/1/3 176/1/3 182/1/3
f 183/1/3 182/1/3 184/1/3
f 185/1/3 184/1/3 186/1/3
f 187/1/3 186/1/3 188/1/3
f 189/1/3 188/1/3 190/1/3
f 191/1/3 190/1/3 194/1/3
f 195/1/3 194/1/3 196/1/3
f 198/1/3 196/1/3 199/1/3
f 230/1/3 199/1/3 229/1/3
f 228/1/3 229/1/3 227/1/3
f 226/1/3 227/1/3 225/1/3
f 224/1/3 225/1/3 223/1/3
f 222/1/3 223/1/3 221/1/3
f 220/1/3 221/1/3 219/1/3
f 218/1/3 219/1/3 217/1/3
f 216/1/3 217/1/3 175/1/3
f 201/1/4 200/1/4 202/1/4
f 203/1/4 202/1/4 204/1/4
f 205/1/4 204/1/4 206/1/4
f 207/1/4 206/1/4 208/1/4
f 209/1/4 208/1/4 210/1/4
f 211/1/4 210/1/4 212/1/4
f 213/1/4 212/1/4 214/1/4
f 215/1/4 214/1/4 157/1/4
f 158/1/4 157/1/4 160/1/4
f 161/1/4 160/1/4 162/1/4
f 163/1/4 162/1/4 164/1/4
f 165/1/4 164/1/4 166/1/4
f 167/1/4 166/1/4 168/1/4
f 169/1/4 168/1/4 170/1/4
f 171/1/4 170/1/4 172/1/4
f 192/1/4 172/1/4 193/1/4
f 173/1/4 193/1/4 174/1/4
f 178/1/4 174/1/4 159/1/4
f 232/1/1 234/1/1 233/1/1 231/1/1
f 200/1/2 175/1/2 231/1/2 233/1/2
f 231/1/3 175/1/3 232/1/3
f 233/1/4 234/1/4 200/1/4
f 41/1/1 3/1/1 236/1/1 235/1/1
f 234/1/5 232/1/5 237/1/5 238/1/5
f 41/1/4 235/1/4 237/1/4 232/1/4 175/1/4 217/1/4 219/1/4 221/1/4 223/1/4 225/1/4 227/1/4 229/1/4 199/1/4 196/1/4 194/1/4 190/1/4 188/1/4 186/1/4 184/1/4 182/1/4 176/1/4 180/1/4 197/1/4 154/1/4 97/1/4 139/1/4 141/1/4 143/1/4 145/1/4 147/1/4 149/1/4 151/1/4 121/1/4 118/1/4 116/1/4 112/1/4 110/1/4 108/1/4 106/1/4 104/1/4 98/1/4 102/1/4 119/1/4 76/1/4 19/1/4 61/1/4 63/1/4 65/1/4 67/1/4 69/1/4 71/1/4 73/1/4 43/1/4 40/1/4 38/1/4 34/1/4 32/1/4 30/1/4 28/1/4 26/1/4 20/1/4 24/1/4
f 46/1/3 44/1/3 78/1/3 76/1/3 119/1/3 81/1/3 96/1/3 115/1/3 94/1/3 92/1/3 90/1/3 88/1/3 86/1/3 84/1/3 82/1/3 79/1/3 136/1/3 134/1/3 132/1/3 130/1/3 128/1/3 126/1/3 124/1/3 122/1/3 156/1/3 154/1/3 197/1/3 159/1/3 174/1/3 193/1/3 172/1/3 170/1/3 168/1/3 166/1/3 164/1/3 162/1/3 160/1/3 157/1/3 214/1/3 212/1/3 210/1/3 208/1/3 206/1/3 204/1/3 202/1/3 200/1/3 234/1/3 238/1/3 236/1/3 3/1/3 18/1/3 37/1/3 16/1/3 14/1/3 12/1/3 10/1/3 8/1/3 6/1/3 4/1/3 1/1/3 58/1/3 56/1/3 54/1/3 52/1/3 50/1/3 48/1/3
f 239/2/3 241/3/3 242/4/3 240/5/3
f 241/3/2 245/6/2 246/7/2 242/4/2
f 245/6/4 243/8/4 244/9/4 246/7/4
f 241/10/1 239/11/1 243/8/1 245/6/1
